
<svg viewBox="0 0 512.085 512.085" >
			<path d="M283.648,228.544c8.064,8.064,22.101,8.064,30.165,0c4.032-4.032,6.251-9.387,6.251-15.104
				c0-5.696-2.219-11.051-6.251-15.083l-15.083-15.083c-4.032-4.011-9.387-6.229-15.083-6.229s-11.051,2.219-15.083,6.229
				c-4.032,4.032-6.251,9.387-6.251,15.083c0,5.717,2.219,11.072,6.251,15.104L283.648,228.544z" fill="currentColor"/>
			<path d="M505.429,357.205c-0.939-2.816-3.029-5.099-5.739-6.315c-2.709-1.216-5.781-1.259-8.533-0.085
				c-4.907,2.112-10.731,0.299-13.312-4.139c-2.645-4.565-1.344-10.283,3.072-13.611c2.368-1.792,3.904-4.48,4.203-7.445
				c0.299-2.944-0.64-5.888-2.603-8.128c-17.387-19.797-39.808-32.896-64.811-37.845c-2.965-0.64-6.016,0.085-8.427,1.877
				c-2.411,1.771-3.968,4.501-4.288,7.488c-0.555,5.504-4.992,9.664-10.283,9.664c-5.291,0-9.728-4.139-10.283-9.664
				c-0.32-2.987-1.856-5.717-4.288-7.488c-2.432-1.771-5.525-2.496-8.427-1.877c-25.003,4.971-47.424,18.069-64.811,37.845
				c-1.963,2.219-2.901,5.184-2.603,8.128c0.299,2.944,1.813,5.653,4.181,7.424c4.416,3.328,5.717,9.067,3.093,13.611
				c-2.56,4.416-8.405,6.208-13.312,4.139c-2.731-1.173-5.824-1.131-8.533,0.085c-2.709,1.216-4.779,3.499-5.739,6.293
				c-4.459,13.141-6.635,25.408-6.635,37.461s2.176,24.32,6.635,37.461c0.96,2.816,3.029,5.099,5.739,6.293
				c2.709,1.216,5.803,1.237,8.533,0.085c4.949-2.069,10.752-0.277,13.312,4.139c2.645,4.544,1.344,10.283-3.093,13.611
				c-2.368,1.771-3.883,4.48-4.181,7.424c-0.299,2.944,0.64,5.888,2.603,8.128c17.387,19.797,39.808,32.896,64.811,37.845
				c2.88,0.597,5.995-0.085,8.427-1.877s3.968-4.501,4.288-7.488c0.555-5.504,4.992-9.664,10.283-9.664
				c5.291,0,9.728,4.139,10.283,9.664c0.32,2.987,1.856,5.717,4.288,7.488c1.835,1.365,4.075,2.091,6.336,2.091
				c0.704,0,1.387-0.064,2.091-0.213c25.003-4.971,47.424-18.069,64.811-37.845c1.963-2.219,2.901-5.184,2.603-8.128
				c-0.299-2.965-1.813-5.653-4.203-7.445c-4.416-3.328-5.717-9.045-3.072-13.611c2.539-4.437,8.363-6.229,13.312-4.139
				c2.731,1.131,5.803,1.109,8.533-0.085c2.709-1.216,4.779-3.499,5.739-6.293c4.459-13.077,6.635-25.344,6.635-37.397
				S509.888,370.347,505.429,357.205z M394.731,426.667c-17.643,0-32-14.357-32-32c0-17.643,14.357-32,32-32
				c17.643,0,32,14.357,32,32C426.731,412.309,412.373,426.667,394.731,426.667z" fill="currentColor"/>
			<path d="M263.787,439.061c-5.227-15.381-7.765-29.888-7.765-44.331c0-14.443,2.539-28.928,7.765-44.331
				c2.432-7.189,7.381-13.312,13.909-17.216c3.179-1.899,5.141-5.312,5.205-9.003c0.107-7.637,2.944-14.997,7.979-20.736
				c20.523-23.339,47.04-38.784,76.693-44.672c7.531-1.493,15.339-0.213,21.909,3.499c3.243,1.813,7.211,1.813,10.453,0
				c6.592-3.691,14.379-4.971,21.909-3.499c11.947,2.368,23.765,6.677,36.16,13.163c4.096,2.133,9.173,1.365,12.48-1.92
				l13.419-13.419c18.133-18.133,28.117-42.219,28.117-67.883V53.397C512.064,23.936,488.128,0,458.731,0H323.413
				c-25.643,0-49.749,9.984-67.883,28.117l-71.573,71.573c22.699,4.053,49.92,6.976,82.773,6.976
				c44.416,0,86.955-10.709,119.061-20.053c0.235-0.064,0.469,0,0.704-0.064c2.645-0.704,5.355-1.216,8.235-1.216
				c17.643,0,32,14.357,32,32c0,17.643-14.357,32-32,32c-10.901,0-20.523-5.504-26.304-13.845
				c10.411-2.603,20.267-5.291,29.269-7.915c5.653-1.643,8.896-7.552,7.253-13.227c-1.643-5.653-7.552-8.939-13.227-7.253
				c-8.853,2.581-18.539,5.227-28.779,7.765c-0.128,0.043-0.299,0.064-0.427,0.107c-7.829,1.941-16.043,3.755-24.512,5.44
				c-3.093,0.619-6.315,1.109-9.472,1.685c-6.848,1.216-13.867,2.24-21.013,3.136c-3.157,0.384-6.315,0.789-9.515,1.109
				c-10.261,1.003-20.693,1.707-31.317,1.707c-8.96,0-17.664-0.256-26.197-0.661c-1.28-0.064-2.517-0.128-3.776-0.192
				c-26.304-1.429-50.411-4.608-71.232-9.045l-0.043,0.043c-50.987-10.965-80.107-29.056-80.107-43.477
				c0-20.757,53.312-47.061,139.456-53.355c5.867-0.427,10.283-5.547,9.856-11.413c-0.427-5.867-5.419-10.219-11.413-9.856
				C143.979,5.867,64.021,31.211,64.021,74.731c0,28.117,35.2,48.683,83.883,61.035L18.219,265.451
				C6.485,277.184,0.021,292.757,0.021,309.44c0,16.576,6.464,32.171,18.197,43.904l140.544,140.544
				c11.733,11.733,27.307,18.197,43.904,18.197h0.085c16.576,0,32.171-6.464,43.904-18.197l26.197-26.197
				c2.048-2.048,3.179-4.864,3.115-7.765c-0.064-2.901-1.301-5.675-3.456-7.637C268.48,448.576,265.472,444.011,263.787,439.061z
				 M253.483,168.192c16.085-16.107,44.203-16.128,60.331,0l15.083,15.083c8.064,8.064,12.501,18.773,12.501,30.165
				c0,11.413-4.437,22.123-12.501,30.187c-8.043,8.064-18.773,12.501-30.165,12.501s-22.123-4.437-30.165-12.501l-15.083-15.083
				C236.843,211.904,236.843,184.832,253.483,168.192z M193.109,379.413c-9.963,9.963-22.187,15.253-33.152,15.253
				c-6.72,0-12.949-1.984-17.92-6.08c-4.523-3.755-5.163-10.475-1.408-15.019c3.733-4.501,10.453-5.184,15.019-1.408
				c3.307,2.752,13.44,1.131,22.379-7.808c9.088-9.088,10.56-19.648,7.552-22.656c-1.835-1.835-7.275-3.307-22.635,7.723
				l-2.581,1.835c-21.483,15.467-38.379,17.344-50.219,5.504c-12.693-12.693-9.365-35.883,7.552-52.821
				c16.021-16.043,37.995-19.989,51.072-9.173c4.544,3.755,5.184,10.475,1.429,15.019c-3.733,4.501-10.475,5.184-15.019,1.429
				c-3.349-2.709-13.461-1.109-22.4,7.808c-9.088,9.088-10.56,19.648-7.552,22.656c1.835,1.835,7.275,3.328,22.677-7.744
				l2.581-1.835c21.461-15.445,38.357-17.301,50.176-5.483C213.376,339.285,210.048,362.475,193.109,379.413z M245.931,326.592
				c-2.005,2.005-4.715,3.115-7.552,3.115s-5.547-1.131-7.552-3.115l-60.331-60.352c-4.16-4.16-4.16-10.923,0-15.083l37.717-37.717
				c4.16-4.16,10.923-4.16,15.083,0c4.16,4.16,4.16,10.923,0,15.083l-30.165,30.165l15.083,15.083l22.635-22.635
				c4.16-4.16,10.923-4.16,15.083,0c4.16,4.16,4.16,10.923,0,15.083l-22.635,22.635l15.083,15.083l30.187-30.187
				c4.16-4.16,10.923-4.16,15.083,0s4.16,10.965,0,15.125L245.931,326.592z" fill="currentColor"/>
</svg>
